<svg width="62" height="62" viewBox="0 0 62 62" fill="none" xmlns="http://www.w3.org/2000/svg">
<path d="M58 33C58 46.8071 46.8071 58 33 58C19.1929 58 8 46.8071 8 33C8 19.1929 19.1929 8 33 8C46.8071 8 58 19.1929 58 33Z" fill="#F19F42"/>
<path d="M24.6667 30.9167L33 22.5833L41.3333 30.9167M33 22.5833L33 43.4167M58 33C58 46.8071 46.8071 58 33 58C19.1929 58 8 46.8071 8 33C8 19.1929 19.1929 8 33 8C46.8071 8 58 19.1929 58 33Z" stroke="#F19F42" stroke-width="2" stroke-linecap="round" stroke-linejoin="round"/>
<path d="M54 29C54 42.8071 42.8071 54 29 54C15.1929 54 4 42.8071 4 29C4 15.1929 15.1929 4 29 4C42.8071 4 54 15.1929 54 29Z" fill="#7A34F3"/>
<path d="M20.6667 26.9167L29 18.5833L37.3333 26.9167M29 18.5833L29 39.4167M54 29C54 42.8071 42.8071 54 29 54C15.1929 54 4 42.8071 4 29C4 15.1929 15.1929 4 29 4C42.8071 4 54 15.1929 54 29Z" stroke="white" stroke-width="2" stroke-linecap="round" stroke-linejoin="round"/>
</svg>
