<svg width="62" height="62" viewBox="0 0 62 62" fill="none" xmlns="http://www.w3.org/2000/svg">
<path d="M26.3148 10.6113C26.5659 9.10442 27.8697 8 29.3973 8H36.6027C38.1304 8 39.4341 9.10442 39.6852 10.6113L40.2783 14.1697C40.4515 15.2087 41.1458 16.0742 42.0674 16.5843C42.2735 16.6984 42.4771 16.8162 42.6783 16.9377C43.5812 17.4829 44.6793 17.6524 45.667 17.2824L49.0472 16.016C50.4777 15.4801 52.086 16.057 52.8499 17.3799L56.4526 23.62C57.2164 24.943 56.9118 26.6243 55.7324 27.5952L52.9425 29.8919C52.13 30.5608 51.7272 31.5937 51.7467 32.6459C51.7489 32.7637 51.75 32.8817 51.75 33C51.75 33.1183 51.7489 33.2363 51.7467 33.354C51.7273 34.4063 52.13 35.4392 52.9425 36.1081L55.7324 38.4048C56.9118 39.3757 57.2164 41.057 56.4526 42.3799L52.8499 48.62C52.086 49.943 50.4777 50.5198 49.0472 49.9839L45.667 48.7176C44.6794 48.3476 43.5812 48.5171 42.6784 49.0623C42.4771 49.1838 42.2735 49.3016 42.0674 49.4157C41.1458 49.9258 40.4515 50.7913 40.2783 51.8303L39.6852 55.3887C39.4341 56.8956 38.1304 58 36.6027 58H29.3973C27.8697 58 26.5659 56.8956 26.3148 55.3887L25.7217 51.8303C25.5486 50.7913 24.8542 49.9258 23.9326 49.4157C23.7266 49.3016 23.5229 49.1838 23.3217 49.0623C22.4188 48.5171 21.3207 48.3476 20.333 48.7176L16.9528 49.984C15.5223 50.5199 13.914 49.943 13.1502 48.6201L9.54745 42.38C8.78363 41.057 9.08823 39.3757 10.2676 38.4048L13.0575 36.1081C13.87 35.4392 14.2728 34.4063 14.2533 33.3541C14.2511 33.2363 14.25 33.1183 14.25 33C14.25 32.8817 14.2511 32.7637 14.2533 32.646C14.2728 31.5937 13.87 30.5608 13.0575 29.8919L10.2676 27.5952C9.08823 26.6243 8.78363 24.943 9.54745 23.6201L13.1502 17.38C13.914 16.057 15.5223 15.4802 16.9528 16.0161L20.333 17.2824C21.3206 17.6524 22.4188 17.4829 23.3217 16.9377C23.5229 16.8162 23.7266 16.6984 23.9326 16.5843C24.8542 16.0742 25.5486 15.2087 25.7217 14.1697L26.3148 10.6113Z" fill="#F19F42"/>
<path d="M41.3327 32.9998C41.3327 37.6022 37.6017 41.3331 32.9994 41.3331C28.397 41.3331 24.666 37.6022 24.666 32.9998C24.666 28.3974 28.397 24.6664 32.9994 24.6664C37.6017 24.6664 41.3327 28.3974 41.3327 32.9998Z" fill="#F19F42"/>
<path d="M26.3148 10.6113C26.5659 9.10442 27.8697 8 29.3973 8H36.6027C38.1304 8 39.4341 9.10442 39.6852 10.6113L40.2783 14.1697C40.4515 15.2087 41.1458 16.0742 42.0674 16.5843C42.2735 16.6984 42.4771 16.8162 42.6783 16.9377C43.5812 17.4829 44.6793 17.6524 45.667 17.2824L49.0472 16.016C50.4777 15.4801 52.086 16.057 52.8499 17.3799L56.4526 23.62C57.2164 24.943 56.9118 26.6243 55.7324 27.5952L52.9425 29.8919C52.13 30.5608 51.7272 31.5937 51.7467 32.6459C51.7489 32.7637 51.75 32.8817 51.75 33C51.75 33.1183 51.7489 33.2363 51.7467 33.354C51.7273 34.4063 52.13 35.4392 52.9425 36.1081L55.7324 38.4048C56.9118 39.3757 57.2164 41.057 56.4526 42.3799L52.8499 48.62C52.086 49.943 50.4777 50.5198 49.0472 49.9839L45.667 48.7176C44.6794 48.3476 43.5812 48.5171 42.6784 49.0623C42.4771 49.1838 42.2735 49.3016 42.0674 49.4157C41.1458 49.9258 40.4515 50.7913 40.2783 51.8303L39.6852 55.3887C39.4341 56.8956 38.1304 58 36.6027 58H29.3973C27.8697 58 26.5659 56.8956 26.3148 55.3887L25.7217 51.8303C25.5486 50.7913 24.8542 49.9258 23.9326 49.4157C23.7266 49.3016 23.5229 49.1838 23.3217 49.0623C22.4188 48.5171 21.3207 48.3476 20.333 48.7176L16.9528 49.984C15.5223 50.5199 13.914 49.943 13.1502 48.6201L9.54745 42.38C8.78363 41.057 9.08823 39.3757 10.2676 38.4048L13.0575 36.1081C13.87 35.4392 14.2728 34.4063 14.2533 33.3541C14.2511 33.2363 14.25 33.1183 14.25 33C14.25 32.8817 14.2511 32.7637 14.2533 32.646C14.2728 31.5937 13.87 30.5608 13.0575 29.8919L10.2676 27.5952C9.08823 26.6243 8.78363 24.943 9.54745 23.6201L13.1502 17.38C13.914 16.057 15.5223 15.4802 16.9528 16.0161L20.333 17.2824C21.3206 17.6524 22.4188 17.4829 23.3217 16.9377C23.5229 16.8162 23.7266 16.6984 23.9326 16.5843C24.8542 16.0742 25.5486 15.2087 25.7217 14.1697L26.3148 10.6113Z" stroke="#F19F42" stroke-width="2" stroke-linecap="round" stroke-linejoin="round"/>
<path d="M41.3327 32.9998C41.3327 37.6022 37.6017 41.3331 32.9994 41.3331C28.397 41.3331 24.666 37.6022 24.666 32.9998C24.666 28.3974 28.397 24.6664 32.9994 24.6664C37.6017 24.6664 41.3327 28.3974 41.3327 32.9998Z" stroke="#F19F42" stroke-width="2" stroke-linecap="round" stroke-linejoin="round"/>
<path d="M22.3148 6.61125C22.5659 5.10442 23.8697 4 25.3973 4H32.6027C34.1304 4 35.4341 5.10442 35.6852 6.61125L36.2783 10.1697C36.4515 11.2087 37.1458 12.0742 38.0674 12.5843C38.2735 12.6984 38.4771 12.8162 38.6783 12.9377C39.5812 13.4829 40.6793 13.6524 41.667 13.2824L45.0472 12.016C46.4777 11.4801 48.086 12.057 48.8499 13.3799L52.4526 19.62C53.2164 20.943 52.9118 22.6243 51.7324 23.5952L48.9425 25.8919C48.13 26.5608 47.7272 27.5937 47.7467 28.6459C47.7489 28.7637 47.75 28.8817 47.75 29C47.75 29.1183 47.7489 29.2363 47.7467 29.354C47.7273 30.4063 48.13 31.4392 48.9425 32.1081L51.7324 34.4048C52.9118 35.3757 53.2164 37.057 52.4526 38.3799L48.8499 44.62C48.086 45.943 46.4777 46.5198 45.0472 45.9839L41.667 44.7176C40.6794 44.3476 39.5812 44.5171 38.6784 45.0623C38.4771 45.1838 38.2735 45.3016 38.0674 45.4157C37.1458 45.9258 36.4515 46.7913 36.2783 47.8303L35.6852 51.3887C35.4341 52.8956 34.1304 54 32.6027 54H25.3973C23.8697 54 22.5659 52.8956 22.3148 51.3887L21.7217 47.8303C21.5486 46.7913 20.8542 45.9258 19.9326 45.4157C19.7266 45.3016 19.5229 45.1838 19.3217 45.0623C18.4188 44.5171 17.3207 44.3476 16.333 44.7176L12.9528 45.984C11.5223 46.5199 9.91398 45.943 9.15017 44.6201L5.54745 38.38C4.78363 37.057 5.08823 35.3757 6.26762 34.4048L9.05748 32.1081C9.87 31.4392 10.2728 30.4063 10.2533 29.3541C10.2511 29.2363 10.25 29.1183 10.25 29C10.25 28.8817 10.2511 28.7637 10.2533 28.646C10.2728 27.5937 9.87 26.5608 9.05748 25.8919L6.26762 23.5952C5.08823 22.6243 4.78363 20.943 5.54745 19.6201L9.15017 13.38C9.91399 12.057 11.5223 11.4802 12.9528 12.0161L16.333 13.2824C17.3206 13.6524 18.4188 13.4829 19.3217 12.9377C19.5229 12.8162 19.7266 12.6984 19.9326 12.5843C20.8542 12.0742 21.5486 11.2087 21.7217 10.1697L22.3148 6.61125Z" fill="white"/>
<path d="M37.3327 28.9998C37.3327 33.6022 33.6017 37.3331 28.9994 37.3331C24.397 37.3331 20.666 33.6022 20.666 28.9998C20.666 24.3974 24.397 20.6664 28.9994 20.6664C33.6017 20.6664 37.3327 24.3974 37.3327 28.9998Z" fill="white"/>
<path d="M22.3148 6.61125C22.5659 5.10442 23.8697 4 25.3973 4H32.6027C34.1304 4 35.4341 5.10442 35.6852 6.61125L36.2783 10.1697C36.4515 11.2087 37.1458 12.0742 38.0674 12.5843C38.2735 12.6984 38.4771 12.8162 38.6783 12.9377C39.5812 13.4829 40.6793 13.6524 41.667 13.2824L45.0472 12.016C46.4777 11.4801 48.086 12.057 48.8499 13.3799L52.4526 19.62C53.2164 20.943 52.9118 22.6243 51.7324 23.5952L48.9425 25.8919C48.13 26.5608 47.7272 27.5937 47.7467 28.6459C47.7489 28.7637 47.75 28.8817 47.75 29C47.75 29.1183 47.7489 29.2363 47.7467 29.354C47.7273 30.4063 48.13 31.4392 48.9425 32.1081L51.7324 34.4048C52.9118 35.3757 53.2164 37.057 52.4526 38.3799L48.8499 44.62C48.086 45.943 46.4777 46.5198 45.0472 45.9839L41.667 44.7176C40.6794 44.3476 39.5812 44.5171 38.6784 45.0623C38.4771 45.1838 38.2735 45.3016 38.0674 45.4157C37.1458 45.9258 36.4515 46.7913 36.2783 47.8303L35.6852 51.3887C35.4341 52.8956 34.1304 54 32.6027 54H25.3973C23.8697 54 22.5659 52.8956 22.3148 51.3887L21.7217 47.8303C21.5486 46.7913 20.8542 45.9258 19.9326 45.4157C19.7266 45.3016 19.5229 45.1838 19.3217 45.0623C18.4188 44.5171 17.3207 44.3476 16.333 44.7176L12.9528 45.984C11.5223 46.5199 9.91398 45.943 9.15017 44.6201L5.54745 38.38C4.78363 37.057 5.08823 35.3757 6.26762 34.4048L9.05748 32.1081C9.87 31.4392 10.2728 30.4063 10.2533 29.3541C10.2511 29.2363 10.25 29.1183 10.25 29C10.25 28.8817 10.2511 28.7637 10.2533 28.646C10.2728 27.5937 9.87 26.5608 9.05748 25.8919L6.26762 23.5952C5.08823 22.6243 4.78363 20.943 5.54745 19.6201L9.15017 13.38C9.91399 12.057 11.5223 11.4802 12.9528 12.0161L16.333 13.2824C17.3206 13.6524 18.4188 13.4829 19.3217 12.9377C19.5229 12.8162 19.7266 12.6984 19.9326 12.5843C20.8542 12.0742 21.5486 11.2087 21.7217 10.1697L22.3148 6.61125Z" stroke="#7A34F3" stroke-width="2" stroke-linecap="round" stroke-linejoin="round"/>
<path d="M37.3327 28.9998C37.3327 33.6022 33.6017 37.3331 28.9994 37.3331C24.397 37.3331 20.666 33.6022 20.666 28.9998C20.666 24.3974 24.397 20.6664 28.9994 20.6664C33.6017 20.6664 37.3327 24.3974 37.3327 28.9998Z" stroke="#7A34F3" stroke-width="2" stroke-linecap="round" stroke-linejoin="round"/>
</svg>
